<?xml version="1.0" encoding="utf-8"?>
<!-- Generator: Adobe Illustrator 26.3.1, SVG Export Plug-In . SVG Version: 6.00 Build 0)  -->
<svg version="1.1" id="Layer_1" xmlns="http://www.w3.org/2000/svg" xmlns:xlink="http://www.w3.org/1999/xlink" x="0px" y="0px"
	 viewBox="0 0 858.2 858.2" style="enable-background:new 0 0 858.2 858.2;" xml:space="preserve">
<style type="text/css">
	.st0{fill:#FFFFFF;stroke:#000000;stroke-miterlimit:10;}
</style>
<path class="st0" d="M428.3,351.8c5.5,6,13.7,4.5,23.5,0l-22.5-24.4C422.1,337.8,423.1,346.1,428.3,351.8z"/>
<path class="st0" d="M496.2,365.4l21.8,23.7c6.8-9.8,6.5-17.7,1.4-23.2C513.9,359.9,505.9,361.2,496.2,365.4z"/>
<path class="st0" d="M321.5,429.3l-22.7,20.9l38.6,41.9l22.7-20.9c17-15.7,18.3-31.5,6.3-44.5C354.3,413.4,338.5,413.6,321.5,429.3z
	"/>
<path class="st0" d="M334.8,190c-26.7-22.6-57.6-27.5-90.7-20c-42.3,9.6-75.5,34.7-104.9,65.1c-10.8,11.1-11.5,28.5-3.5,41.8
	c7.9,13.1,23.8,19.9,38.8,16.1c5.2-1.3,10.1-4,15.1-6.1c9.6,25.3,38.1,31.4,58,16.8c3,8.3,8,15,15.4,20
	c27.4-36.8,62.6-92.5,81.7-123.7C341.8,196.5,338.5,193.1,334.8,190z"/>
<path class="st0" d="M239.8,351.8c0,0-0.1,0.1-0.1,0.1C239.7,351.8,239.7,351.8,239.8,351.8C239.8,351.8,239.8,351.8,239.8,351.8z"
	/>
<path class="st0" d="M748,282c-4-6-1-13-15-20c-11.8-5.9-165.3-111.7-212.7-144.4c-0.4-0.4-0.8-0.8-1.1-1.1
	c-3.8-3.8-7.9-6.7-12.7-8.4c0,0,0,0,0,0l0,0c-2.3-0.8-4.7-1.3-7.3-1.5c-9.3-0.6-16.9,2.8-23.4,9.3c-33.8,33.8-67.6,67.6-101.4,101.4
	l0,0c0,0-146.5,146.5-139.2,139.2c-43.6,43.6-87.1,87.1-130.6,130.7c-13,13.1-13.1,30.4-0.1,43.4c66.1,66.1,132.1,132.2,198.3,198.2
	c13,13,30.4,13,43.5,0.1c6.2-6.1,12.3-12.3,18.4-18.4c15.9-15.9,31.7-31.8,47.7-47.6c3.2-3.1,5.3-7,3.2-10.8
	c-2.8-4.8-0.3-7.1,2.6-9.8c1.9-1.7,3.5-3.8,5.5-5.3c1-0.7,3-1.2,3.9-0.6c5.8,3.4,10.1,1.3,14.4-3c20.7-20.8,41.5-41.5,62.3-62.3
	c1.1-1.1,2.3-2.1,3.8-3.4c5.2,9.1,12.4,14.8,22,18.3c-7.9,10.4-10.3,21.7-6.7,33.8c3.6,12.1,12.4,19.6,24,24.2
	c-0.9,1.4-1.4,2.1-1.9,2.9c-10.3,16-7.4,36.1,6.9,47.9c14.1,11.6,35,10.8,48.3-2.4c17.1-16.9,32.4-35.4,44.3-56.3
	c15.6-27.6,25.2-56.7,20.3-88.9c-4.2-27.2-16.4-48.2-37.3-62.2c-47.3,18.5-92.4,56.5-117.7,80.4l-21,21c0,0,7.8-8.6,21-21l93-93.1
	c-0.2-0.3-0.4-0.6-0.6-1c1.4-0.9,3.1-1.5,4.2-2.7c36.6-36.5,73.1-73,109.6-109.6c14.4-14.4,14.4-30.9-0.1-45.3
	c-38.7-38.6-77.3-77.3-116-115.9c-19.5-19.5-39-39-58.4-58.5L735,309c4-7-5,3,4-7S752,288,748,282z M145.6,517.3
	c5.3-3.7-2,4.2,5.3-3.7c7.3-7.9,10.2-11.4,15.2-8.7c5.1,2.7,10.4-0.2,17.1,10.4c6.6,10.6,140,168.6,140,168.6L145.6,517.3z
	 M437.6,502.7l-54-12.1l-1.4,1.3l-24.2,22.3l30.9,33.5L361,573.3L250.2,453.2l52-48c32.1-29.6,67.5-31.5,92.4-4.5
	c16.6,18,19.7,39.6,10.3,60.7l62.6,13.8L437.6,502.7z M545.2,338.3c16.5,17.9,17.7,45.3-6.3,73.4l17.7,19.2l-17.2,15.8l-17.3-18.7
	c-17.9,14.6-39.2,24.4-55.4,25.7l-9.9-29.6c14.4-1.6,31.1-8.3,44.5-18.5L475,377c-23.3,12.9-50.5,26.2-73.1,1.7
	c-16.8-18.2-18-46,6.3-74.1l-17.6-19.1l17.2-15.8l17.3,18.7c13.8-10.8,29.5-19,44.5-21.7l10.9,29c-13.3,3.1-25,8.4-34.5,15.3
	l26.9,29.2C496.1,327.1,522.9,314.1,545.2,338.3z"/>
<path class="st0" d="M235.2,356.4c1.5-1.5,3-3,4.5-4.5C237.2,354.4,235.7,355.8,235.2,356.4z"/>
<path class="st0" d="M265.9,325.5c-1-0.6-1.9-1.2-2.9-1.8c-8.8,11.8-16.8,21.6-23.2,28.1c7.4-7.4,14.9-14.9,22.3-22.3
	C263.2,328.3,264.3,327.1,265.9,325.5z"/>
</svg>
