<?xml version="1.0" encoding="utf-8"?>
<!-- Generator: Adobe Illustrator 26.3.1, SVG Export Plug-In . SVG Version: 6.00 Build 0)  -->
<svg version="1.1" id="Layer_1" xmlns="http://www.w3.org/2000/svg" xmlns:xlink="http://www.w3.org/1999/xlink" x="0px" y="0px"
	 viewBox="0 0 858.2 858.2" style="enable-background:new 0 0 858.2 858.2;" xml:space="preserve">
<style type="text/css">
	.st0{fill:#FFFFFF;}
</style>
<g>
	<path class="st0" d="M764.2,358.8c-14-5.9-30-0.3-39.8,12.7c-0.9,1.2-2.3,2.9-3.6,2.9c-13.3,0.2-26.5,0.1-40.3,0.1
		c0-2.5,0-4.4,0-6.4c-0.3-36.9,0.2-73.9-1.2-110.8c-0.8-21.8-10.9-40.7-27-55.6c-18.2-16.9-40.5-23.8-64.9-23.8
		c-104.7-0.1-209.4-0.1-314.1,0.1c-9.2,0-18.6,1.1-27.7,3c-22.7,5-40.8,17.3-53.5,37c-10.3,16-14.5,33.8-14.6,52.6
		c-0.2,32.6-0.1,65.2-0.1,97.9c0,1.9,0,3.8,0,6c-13.1,0-25.4-0.1-37.6,0.1c-3.2,0-5.2-1-7-3.6c-10.6-15.7-35.9-19.7-51.3-5.1
		c-10.7,10.2-14.1,22.3-10.3,36.3c3.6,13.3,12.9,21.3,26.2,23.8c14.3,2.7,27.2,0.1,36.1-13c0.9-1.3,2.8-2.6,4.2-2.6
		c13-0.2,25.9-0.1,39.7-0.1c0,2.6,0,4.5,0,6.5c0,42.8-0.2,85.5,0.1,128.3c0.1,9.7,1.1,19.6,2.9,29.2c7.2,36.9,41.4,66,79,67.7
		c18.8,0.8,37.6,1.3,56.4,1.9c1.8,0.1,3.5,0.2,5.4,0.3c0,30.4,0,60.2,0,90c0,2.3,0,4.7,0.6,6.9c2.6,11.3,12.6,15.1,22.1,8.4
		c0.4-0.3,0.8-0.6,1.2-0.9c44.6-33.9,89.2-67.9,134-101.7c2.3-1.7,5.7-2.8,8.6-2.8c32.3-0.2,64.6,0,96.9-0.2
		c7.6,0,15.3-0.7,22.8-2.1c29.8-5.6,51.7-21.6,64.6-49.4c6.1-13.1,8.5-26.9,8.5-41.2c0.1-44.9,0-89.9,0-134.8c0-1.9,0-3.9,0-6.1
		c13.7,0,26.6-0.1,39.6,0.1c1.3,0,2.9,1.3,3.7,2.5c12.8,19.8,44.5,21.3,59.2-1.9C795.4,391.5,785.5,367.9,764.2,358.8z M608.9,463.7
		c0,23.4-14.2,37.5-37.7,37.6c-47.4,0.1-94.8,0-142.3,0c-47.2,0-94.5,0-141.8,0c-15.6,0-28.1-5.6-34.7-20.4
		c-2.2-5-3.2-10.9-3.3-16.4c-0.2-47.4-0.2-94.8-0.1-142.2c0.1-22.6,14.4-36.8,37-36.9c95.2-0.1,190.3-0.1,285.5,0
		c23.1,0,37.2,14.4,37.2,37.6C609,369.9,609,416.8,608.9,463.7z"/>
	<path class="st0" d="M320.4,356.6c-19.8-0.1-35,15.5-35,35.8c0,20.3,15.4,35.7,35.7,35.7c20.4,0,35.8-15.2,35.8-35.6
		C357,373,340.5,356.7,320.4,356.6z"/>
	<path class="st0" d="M536.3,356.6c-19.7-0.2-35,15.3-35.1,35.7c-0.1,20.2,15.2,35.7,35.6,35.8c20.3,0.2,35.8-15.1,35.9-35.5
		C572.8,373.1,556.4,356.8,536.3,356.6z"/>
</g>
</svg>
