<?xml version="1.0" encoding="utf-8"?>
<svg version="1.1" id="Layer_1" xmlns="http://www.w3.org/2000/svg" xmlns:xlink="http://www.w3.org/1999/xlink" x="0px" y="0px"
	 viewBox="0 0 49 49" style="enable-background:new 0 0 49 49;" xml:space="preserve">
<style type="text/css">
	.st0{fill:#FF6401;}
</style>
<path class="st0" d="M24.5,0C11,0,0,11,0,24.5C0,38.1,11,49,24.5,49S49,38.1,49,24.5C49,11,38.1,0,24.5,0z M25,38.7
	c-2,0-3.7-1.6-3.7-3.7s1.6-3.7,3.7-3.7c2,0,3.7,1.6,3.7,3.7S27,38.7,25,38.7z M28,25.1c-0.1,1.6-1.4,2.9-3,2.9s-2.9-1.3-3-2.9
	l-0.6-11.2c0-2,1.6-3.7,3.7-3.7c2,0,3.7,1.6,3.7,3.7L28,25.1z"/>
</svg>
