<?xml version="1.0" encoding="utf-8"?>
<!-- Generator: Adobe Illustrator 26.5.0, SVG Export Plug-In . SVG Version: 6.00 Build 0)  -->
<svg version="1.1" id="Layer_1" xmlns="http://www.w3.org/2000/svg" xmlns:xlink="http://www.w3.org/1999/xlink" x="0px" y="0px"
	 viewBox="0 0 555 187.5" style="enable-background:new 0 0 555 187.5;" xml:space="preserve">
<style type="text/css">
	.st0{fill:#FFFFFF;}
	.st1{fill:#175FAD;}
	.st2{fill:#097BBB;}
	.st3{fill:#F05223;}
	.st4{fill:#F26B21;}
</style>
<path class="st0" d="M246.4,158.1c-1,0-2.1,0.3-2.8,0.7c-1.1,0.4-1.8,1.1-2.5,1.8c-0.7,0.7-1.1,1.4-1.8,2.5c-0.7,1-1,1.7-1.4,2.8
	c-0.3,1-0.7,1.7-0.7,2.8c-0.4,0.7,0,1.4,0,2.1c0,0.7,0.3,1,0.7,1.4c0.7,0.4,1.1,0.4,1.8,0.4c1.1,0,1.8,0,2.5-0.7
	c1.1-0.7,1.8-1.4,2.5-2.8c1-1.4,1.4-2.8,2.1-4.9l1.8-6.1h-1.1H246.4z"/>
<path class="st0" d="M272.7,159.6c-0.4-0.3-1.1-0.7-1.8-0.7s-1.8,0-2.5,0.7c-1.1,0.7-1.8,1.4-2.5,2.5c-0.7,1-1.4,2.1-1.8,3.5h0
	l-0.6,2.5c0,0.7-0.4,1-0.4,1.4v1.4c0,1,0.3,1.7,0.7,2.1c0.4,0.3,1.1,0.7,1.8,0.7c1.1,0,1.8-0.3,2.5-0.7c0.7-0.4,1.4-1.1,2.1-1.8
	c0.7-0.7,1.4-1.8,1.8-2.5c0.4-1,0.7-1.7,1.1-2.8c0.3-1,0.7-2.1,0.7-2.8c0.4-0.7,0.4-1.4,0-2.1C273.4,160.3,273.1,159.9,272.7,159.6z
	"/>
<path class="st0" d="M457.7,157.6c-0.7-0.4-1.4-0.4-2.1-0.4c-1,0-1.7,0.3-2.8,0.7c-0.7,0.4-1.8,1.1-2.5,1.8
	c-0.7,0.7-1.4,1.7-2.1,2.8c-0.7,1.1-1.4,2.5-1.8,3.9l-0.2,2.7c0,0.3-0.4,1-0.4,1.4c-0.4,0.7-0.4,1.1-0.4,1.8c0,1.1,0,1.8,0.7,2.5
	c0.7,0.7,1.4,1.1,2.8,1.1c1.4,0,2.5-0.4,3.5-0.7c1-0.3,1.7-1,2.8-2.1c1.1-1.1,1.8-2.1,2.5-3.2c0.3-1,1-2.4,1.4-3.5
	c0.3-1.4,0.7-2.4,0.7-3.5v-2.1c0-0.7-0.3-1.1-0.7-1.8C458.8,158.3,458.4,158,457.7,157.6z"/>
<path class="st0" d="M240.6,60.1c16.2,0.4,23.2-4.9,28.5-14.1c3.9-9.2,1.8-13.7-8.8-13.7c-7.9-0.1-15.3,0.3-22.6,0.3
	c-3.9,0-7.7,13.4-7.7,21.5C229.3,60.8,235.6,59.7,240.6,60.1z"/>
<path class="st0" d="M158.8,94.2c-3.2-1.1-11.6,2.1-16.9,5.6c-9.5,7.4-8.8,10.9-7.7,15.8c2.1,5.3,13,3.9,20.8-4.6
	C162.7,102.6,163.4,96.3,158.8,94.2z"/>
<path class="st0" d="M245.4,81.2h-25.7c-3.2,3.2-5.6,12-7.7,25.7c0,4.6,1.8,6.7,4.9,7c5.3,0,11.6,0.4,16.5,0
	C256.6,113.2,267.6,82.9,245.4,81.2z"/>
<path class="st0" d="M387.9,156.8c-0.7-0.3-1.8-0.7-2.8-0.7s-1.7,0.3-2.8,0.7c-0.7,0.4-1.8,1.1-2.5,1.8c-0.7,1-1.4,1.7-2.1,2.8
	c-0.7,1.1-1,2.1-1.4,3.2c-0.3,1.4-0.7,2.4-0.7,3.5c0,1.4,0,2.4,0.4,3.5c0.4,1.1,1.1,1.8,1.8,2.5c0.7,0.7,1.7,1.1,2.8,1.1v0
	c1,0,2.1,0,3.1-1.1c0.7-0.4,1.8-1.1,2.5-1.8c0.7-1,1.4-1.7,2.1-2.8c0.7-1.1,1-2.1,1.4-3.2c0.3-1.4,0.7-2.4,0.7-3.5v-2.1
	c0-0.7-0.3-1.4-0.7-2.1C389,157.9,388.6,157.2,387.9,156.8z"/>
<path class="st0" d="M550,92.7c-7-7.4-25.7-20-35.9-20.4c-5,0-10.2,1.1-13.4,4.6c-5.3-3.2-10.9-5.6-15.5-6.7
	c5.9-14.4,11.2-29.9,15.8-44.7c2.1-7,1-14.4-4.6-19.7c-8.5-7.7-22.2-5.9-29.6,2.5c-6.3-9.9-21.1-11-33.8-1.8c-3.2,2.5-6,5.3-8.1,8.8
	c-6.3,10.5-12.7,21.1-19,31.3c0.4-6,0.7-11.6,1.1-17.6c0.7-10.5-3.2-22.1-14-26c-13.3-4.6-24.6,5.3-30.6,16.2
	c-3.2,5.7-6,11.3-8.8,17.3c-0.4-0.3-0.7-0.3-1.1-0.7c-8.1-5.3-17.3-1.4-23.6,4.6c-3.5,3.5-6.3,8.5-8.8,14.1c-1.8,6.7-7.4,7-6,0
	c1.1-7.1-1-14.5-7.7-18.7c-3.9-2.5-8.4-2.8-12.3-2.1c0.4-3.6,0-6.7-0.7-10.6c-3.6-19.7-26.5-22.2-43-21.8c-13.3,0-26.7-0.7-40.1-0.7
	h-7.4l-2.5,7c-2.8,8.5-5.6,16.6-8.4,25c-0.7,2.1-1.4,4.6-2.1,6.7c-10.5-7.7-24.3-8.4-36.6-5.6c-5.3,1.4-12,3.5-18,7
	c-4.2,2.8-9.9,1-6-2.5c3.2-2.8,6.3-5.3,9.5-8.1c7-5.6,8.8-16.9,2.8-24.3c-5.3-6.7-13.7-7.1-21.1-3.9C105.7,8.6,92.3,18.1,80,28.7
	c0.3-1.4,0.3-2.5,0.7-3.9c1.4-8.5,0-18.7-9.2-22.2c-9.5-3.8-18.7,2.9-22.9,11C28.9,49.5,14.8,91.4,3.2,130.8L0,142.1l11.6,1.7
	c4.6,0.8,9.5,1.1,14.1,0.4c12.3-2.1,19.7-11.6,23.6-22.9c3.2-9.2,6.4-15.5,12-22.9c2.8,9.5,4.9,19,6.7,28.9
	c2.1,10.9,14.8,20.1,25.7,18.3l0,0c-5.7,5.6-8.9,13.4-8.8,20c0,11.9,9.8,21.8,21.8,21.8h360.9c16.9,0,31-13.7,31-31
	c0-4.6-1.4-8.8-3.9-12.3c2.1,0,4.6-0.4,6.7-1.1c9.1-3.5,18.3-8.4,27.1-13c10.2-4.9,25.3-10.9,26.4-23.9
	C555.6,101.1,553.5,96.2,550,92.7z M473.1,17.8c4.6-9.2,21.5-7.4,17.6,5.6c-9.1,27.8-19.3,53.1-31.3,73.9
	c-6.3,8.4-11.3,6.3-10.9,0.7C456.3,62.5,464.4,33.3,473.1,17.8z M455.6,118.1c-0.4,7.4-5.3,11.6-11.6,14.1
	c-4.2,1.1-8.8,3.2-11.6-0.7c-1.8-6.3,3.5-14.1,8.4-19C447.5,106.2,458.4,112.1,455.6,118.1z M371.4,24.4c9.5-18.7,26.4-14.1,25,4.6
	c-0.7,13-1.4,26.1-2.5,39.1c-0.4,7.4,6.3,6.3,9.9,1.4c9.9-16.2,19.7-32,29.6-48.2c7-11.6,30.6-16.5,25,3.2
	c-6,34.5-17.3,67.2-32,98.9c-3.2,9.9-15.8,13.4-14.1,2.1c4.6-17.3,9.2-34.5,13.7-51.4c2.5-10.2-4.2-4.9-10.6,7
	c-7.7,14.1-13.7,27.1-23.6,41.9c-11.6,17.6-23.2,16.9-22.9-2.5c0.7-12,1.8-23.9,2.8-36.3c1.1-13-2.1-15.5-7.4-1.1
	c-15.7,47.7-27,54.4-37.6,52.6C339.4,97,351.7,58.6,371.4,24.4z M210.2,10.7c13.4,0.4,27.1,0.7,39.9,0.8c18.3-0.7,30.3,2.8,32.4,13
	c2.9,21.2-8.1,33.8-23.2,44.4c3.5,2.9,6.3,6.4,7,10.6c1.4,4.9,6.3,5.6,9.5-2.8c2.5-8.8,5.6-17.6,10.2-25.7
	c7.1-11.2,19.4-9.1,17.3,2.5c-4.2,23.2-11.3,27.8-16.9,53.5c-2.5,9.5,10.9,21.1,24.6,0.7c10.2-12.7,14.4-50,24.6-59.5
	c7.8-7.8,13.4-4.2,12.7,4.2c-14.8,55.6-28.9,83.8-42.6,82.7c0.7-1.8,1.4-3.9,1.4-6c0-3.2-1.7-3.5-7-0.7
	c-24.6,17.9-37.3,3.1-37.3-11.3c0.3-1.5-1.4-2.5-3.2-0.4c-10.6,12.7-23.3,17.9-36.3,19c-9.9,0-19.7,0.4-29.6,0.4
	c-9.9,0-14.8-1.8-13.4-17.3C185.2,86.7,197.5,47.3,210.2,10.7z M185.2,49.5c12.7,14.4-16.5,53.5-16.2,81c0,2.8-1.8,4.2-5.3,4.2
	h-10.2c-3.2,0-5.6-2.1-7.7-5.3c-9.2,8.1-35.9,12-39.1-2.5c-2.5-12.3-2.8-22.5,14.1-35.6c9.9-6.7,22.2-8.8,38-12
	c6.7-2.8,10.2-13,3.5-15.8c-7.4-3.8-13.4,0-18.7,6c-2.1,4.9-18.3,0-16.5-6.3C127.8,50.5,166.9,33.3,185.2,49.5z M99,126.2
	c-3.9,17.3-19.4,7-20.4-0.4c-2.5-11.3-4.6-22.9-8.1-33.8C68,83.2,61.7,81.4,55,90.6c-5.6,7-10.9,13.4-14.8,27.5
	c-7.8,16.6-17,16.9-26.8,15.5c12.3-42.2,26-83.4,44.3-115.1c5.3-9.9,15.5-9.2,12.7,4.2c-1.4,7.7-3.5,15.5-6.3,22.9
	c-1.8,5.6,2.5,9.5,10.2,2.1c18.3-18,34.2-28.2,50-36.3c10.2-3.9,12.7,6,7.4,10.9c-22.9,17.6-42.2,37-34.5,72.9
	C99,105.4,100,116,99,126.2z M204.3,177.2c0,0.4-0.7,0.7-1.1,1.1c-0.7,0.4-1.1,0.4-1.8,0.4c-0.7,0-1.1-0.4-1.8-0.7
	c-0.3-0.4-0.3-0.8-0.7-1.1c-0.4-0.3-0.4-0.7-0.4-1.4c0.3-0.7,0.3-1.4,0.7-1.8c0-0.4,0.7-0.7,1.1-1.1c0.7-0.4,1.1-0.4,1.8-0.4
	c0.7,0,1.1,0,1.8,0.7c0.3,0.4,0.3,0.7,0.7,1.1c0.4,0.3,0.4,0.7,0.4,1.4C204.7,176.1,204.7,176.8,204.3,177.2z M191.4,178h-3.9
	l-0.4-13v-3.2c0.4-1.1,0.4-2.1,0.4-3.2c-0.4,0.7-0.7,1.4-1.1,2.1c-0.4,0.7-0.7,1.4-1.1,2.1s-0.7,1.4-1.1,2.1l-8.1,13.4h-3.9
	l-0.4-24.1L158,178h-3.9l-0.4-13v-3.2c0.4-1.1,0.4-2.1,0.4-3.2c-0.4,0.7-0.7,1.4-1.1,2.1s-0.7,1.4-1.1,2.1c-0.4,0.7-0.7,1.4-1.1,2.1
	l-8.1,13.4h-3.9l-0.4-24.3l-13.9,24h-3.9l-0.4-13v-3.2c0.4-1.1,0.4-2.1,0.4-3.2c-0.4,0.7-0.7,1.4-1.1,2.1s-0.7,1.4-1.1,2.1
	c-0.4,0.7-0.7,1.4-1.1,2.1l-8.1,13.4h-3.5l-0.4-24.3l4.2-0.2l-0.4,13.7v2.5v2.1c-0.4,0.4-0.4,1.1-0.4,1.8c0.3-1,0.7-1.7,1.4-2.8
	c0.4-0.7,1.1-2.1,1.8-3.2l8.4-14.1h3.5l0.4,13.7v3.5v2.8c0.7-0.7,1-1.7,1.4-2.8c0.3-1.1,0.7-2.1,1.4-3.2l7.4-14.1h4.2l-0.2,0.3
	l4.3-0.6l-0.4,13.7v2.5v2.1c-0.4,0.4-0.4,1.1-0.4,1.8c0.3-1,0.7-1.7,1.4-2.8c0.4-0.7,1.1-2.1,1.8-3.2l8.4-14.1h3.5l0.4,13.7
	c0,1.4,0,3.5,0,3.5v2.8c0.7-0.7,1-1.7,1.4-2.8c0.3-1.1,0.7-2.1,1.4-3.2l7.7-13.7h4.2l-0.2,0.3l4.3-0.2l-0.4,13.7v2.5v2.1
	c-0.4,0.4-0.4,1.1-0.4,1.8c0.3-1,0.7-1.7,1.4-2.8c0.4-0.7,1.1-2.1,1.8-3.2l8.4-14.1h3.4l0.4,13.7v3.5v2.8c0.7-0.7,1-1.7,1.4-2.8
	c0.3-1.1,0.7-2.1,1.4-3.2l7.4-14.1h4.5L191.4,178z M221.8,178.4l-3.5-10.6l-2.8,2.5l-2.1,7.7v0.1h-6.7l9.9-35.2h7l-6,21.1
	c0.7-0.3,1-1,1.4-1.4c0.4-0.7,0.7-1,1.1-1.4l6.7-7.4h8.8L224.3,164l5.6,14.4H221.8z M252.9,169.9c-0.3,0.7-0.7,1.7-0.7,2.8
	c0,1-0.4,1.7-0.4,2.8c-0.4,0.7-0.4,1.8-0.4,2.5l0,0l-0.1,0.7H245c0-0.7,0.4-1.8,0.4-2.5c0-0.7,0.4-1.8,0.4-2.5
	c-1,1.4-1.7,2.5-2.8,3.2c-0.7,0.7-1.8,1.4-2.8,1.8c-1,0.4-1.7,0.4-2.8,0.4c-1.4,0-2.8-0.4-3.9-1.1c-1.1-0.7-2.1-1.4-2.5-2.8
	c-0.7-1.4-0.7-2.9-0.7-4.6s0.4-3.1,1.1-4.9c0.7-1.8,1.4-3.2,2.5-4.6c1.1-1.4,2.5-2.8,3.9-3.9c1.8-1.1,3.2-1.8,5.3-2.5
	c1.7-0.7,3.8-1.1,6.3-1.1h2.8c1,0,2.1,0,2.8,0.4c0.7,0.3,1.4,0.3,2.1,0.7l-3.5,12.7C253.3,168.1,253.3,168.8,252.9,169.9z
	 M277.8,170.5c-1,1.4-2.1,2.8-3.5,3.9c-1.4,1.4-3.1,2.1-4.9,2.8s-3.9,1.1-6,1.1c-2.8,0-4.9-0.8-6.3-1.8c-1.4-1-2.2-2.8-1.8-4.9
	c0-0.7,0.4-1.4,0.4-2.1c0.3-0.7,0.3-1.4,0.7-2.1l7-24.6l-0.1-1.1h7.4l-4.2,14.1c0.7-0.7,1.4-1.4,2.1-1.8c1-0.4,1.7-0.7,2.8-1.1
	c0.7-0.4,1.7-0.4,2.8-0.4c1.1,0,2.1,0.3,3.2,0.7c0.7,0.4,1.4,1.1,2.1,1.8c0.4,1,0.7,1.7,1.1,2.8c0.4,1.1,0.4,2.1,0.4,3.2
	c0,1.7-0.4,3.1-1.1,4.9C279.6,167.7,278.9,169.1,277.8,170.5z M302,174.1c-0.4,1-0.7,2.4-1.1,3.5h-6.3l0.7-3.9
	c-1.4,1.7-2.8,2.8-4.2,3.5c-1.8,0.7-3.2,1.1-4.6,1.1c-1.1,0-2.1-0.3-3.2-0.7c-1-0.3-1.7-1-2.1-2.1c-0.4-1.1-0.4-2.5-0.4-3.9
	c0-0.7,0.4-1.4,0.4-2.1c0.4-0.7,0.4-1.4,0.4-1.8l3.9-13.7h7l-3.5,13c0,0.7-0.4,1.1-0.4,1.8c-0.4,0.3-0.4,1.1-0.4,1.4s0,1,0,1.4
	s0.3,0.7,0.7,1.1c0.3,0.4,0.7,0.4,1.4,0.4s1.8-0.4,2.5-1.1c1.1-0.7,1.8-1.7,2.5-2.8c0.7-1,1.4-2.4,1.8-4.2l3.2-11.3v0l7.4-0.3
	l-4.6,16.5C302.7,171.3,302.4,172.7,302,174.1z M333,178.1l3.5-13.4c0-0.3,0.4-1,0.4-1.4c0.4-0.3,0.4-1,0.4-1.4v-1.4
	c0-0.4-0.3-0.7-0.7-1.1c-0.3-0.4-0.7-0.4-1.4-0.4s-1.8,0.4-2.5,1.1s-1.4,1.7-2.1,2.8c-0.7,1-1.4,2.4-1.8,4.2L326,178h-7l3.5-13.3
	c0-0.3,0.4-1,0.4-1.4c0.4-0.7,0.4-1,0.4-1.4v-1.4c-0.3-0.4-0.3-0.7-0.7-1.1c-0.3-0.4-0.7-0.4-1.4-0.4s-1.8,0.4-2.5,1.1
	c-1.1,0.7-1.8,1.7-2.5,2.8c-0.7,1-1.4,2.4-1.8,4.2l-2.8,10.9l0,0l-7.4-0.1l4.6-16.5c0.4-1.4,0.7-2.8,1.1-4.2c0.3-1,0.3-2.4,0.7-3.5
	h6.3l-0.7,3.9c1.4-1.7,2.8-2.8,4.2-3.5c1.4-0.7,3.2-1.1,4.6-1.1c1,0,1.5,0.1,2.2,0.5c0.7,0.4,1.4,0.7,1.8,1.1
	c0.7,0.3,0.7,0.7,1.1,1.4c0.4,0.7,0.4,1.1,0.4,1.8c1-1.1,1.7-1.8,2.8-2.5c0.7-0.7,1.7-1,2.8-1.4c1.1-0.4,2.1-0.4,3.2-0.4
	c1.4,0,2.5,0.3,3.2,0.7c0.7,0.3,1.4,1,1.8,2.1c0.4,1,0.4,2.1,0.4,3.5c0,0.3,0,1.1,0,1.4s-0.4,1.1-0.4,1.4s-0.4,1-0.4,1.4l-3.9,14.1
	H333z M349.3,177.2c0,0.4-0.7,0.7-1.1,1.1c-0.7,0.4-1.1,0.4-1.8,0.4s-1.1-0.3-1.4-0.7c-0.3-0.4-0.3-0.7-0.7-1.1
	c-0.4-0.3-0.4-0.7-0.4-1.4c0.3-0.7,0.3-1.4,0.7-1.8c0-0.4,0.7-0.7,1.1-1.1c0.7-0.4,1.1-0.4,1.8-0.4c0.3,0,1,0,1.4,0.7
	c0.3,0.4,0.3,0.7,0.7,1.1c0.4,0.3,0.4,0.7,0.4,1.4C349.7,176.1,349.7,176.8,349.3,177.2z M367.5,177.4c-0.7,0.3-1.4,0.7-2.5,0.7
	c-1.1,0.4-2.1,0.4-3.2,0.4c-1.4,0-2.8-0.3-3.9-0.7c-1-0.7-2.1-1.4-2.8-2.1c-0.7-0.7-1-1.7-1.4-2.8c-0.4-1-0.4-2.1-0.4-3.5
	c0-1.7,0.4-3.5,1.1-4.9c0.7-1.4,1.4-2.8,2.5-4.2c1-1.4,2.1-2.4,3.5-3.5c1.4-1.1,2.8-1.8,4.2-2.5c1.4-0.3,3.1-0.7,4.9-0.7
	c0.7,0.4,1.4,0.4,2.1,0.4c0.7,0,1.4,0.4,1.8,0.4c0.4,0,0.7,0.4,1.1,0.4l-1.4,3.2c-0.7-0.3-1.1-0.7-1.8-0.7c-0.7-0.4-1.4-0.4-2.5-0.4
	c-1.4,0-2.5,0.3-3.5,0.7c-1,0.4-1.7,1.1-2.8,1.8c-1.1,1-1.8,1.7-2.5,2.8c-0.7,1.1-1.4,2.1-1.8,3.2c-0.3,1.4-0.7,2.4-0.7,3.5
	c0,1.4,0,2.4,0.4,3.5c0.4,0.7,1.1,1.8,1.8,2.1c0.7,0.3,1.8,0.7,3.2,0.7c1.1,0,1.8-0.4,2.5-0.4c0.7,0,1.1,0,1.8-0.4
	c0.3-0.3,1-0.3,1.4-0.7v0h0l0,0l0.7,3C368.9,177,368.2,177,367.5,177.4z M388.4,175.5c-1.1,1.1-2.5,1.8-3.9,2.5
	c-1.4,0.3-2.8,0.7-4.6,0.7v0c-1.4,0-2.8-0.4-4.2-1.1c-1-0.3-2.1-1-2.8-2.1c-0.7-1.1-1-2.1-1.4-3.2c-0.4-1.1-0.4-2.5-0.4-3.9
	c0-1.4,0.4-3.2,1.1-4.6c0.3-1.4,1-2.8,2.1-4.2c1.1-1.4,2.1-2.4,3.2-3.5c1.1-0.7,2.5-1.4,3.9-2.1c1.4-0.3,3.2-0.7,4.6-0.7
	c1.7,0,3.1,0,4.2,0.7c1,0.3,2.1,1,2.8,2.1c0.7,1.1,1,2.1,1.4,3.2c0.4,1.4,0.4,2.5,0.4,3.9c-0.4,1.8-0.7,3.2-1.1,4.6
	c-0.7,1.4-1,2.8-2.1,4.2C390.5,173.4,389.5,174.4,388.4,175.5z M430.7,160.7c0,0.3-0.4,1.1-0.4,1.4s-0.4,1-0.4,1.4l-3.9,14.1h-3.9
	l3.9-13.7c0-0.3,0.4-0.7,0.4-1.4c0.4-0.3,0.4-1,0.4-1.4c0.4-0.7,0.4-1.4,0-2.1c-0.4-0.7-0.7-1-1.1-1.4c-0.3-0.4-1-0.4-2.1-0.4
	c-0.7,0-1.8,0.3-2.5,0.7c-1.1,0.4-1.8,1.1-2.5,1.8s-1.4,1.7-2.1,2.8c-0.7,1-1,2.1-1.4,3.5l-3.2,12.3H408l3.9-14.1
	c0-0.3,0.4-1,0.4-1.4c0.4-0.3,0.4-1,0.4-1.4v-2.1c-0.4-0.3-0.7-1-1.1-1.4c-0.3-0.3-1-0.7-2.1-0.7c-0.7,0-1.8,0.3-2.5,0.7
	s-1.8,1.1-2.5,1.8c-0.7,0.7-1.4,1.7-2.1,2.8c-0.7,1-1,2.1-1.4,3.5l-3.2,12l0,0l0,0l0,0h-4.2l4.6-17.3c0.4-1.4,0.7-2.8,1.1-3.9
	c0.3-1.1,0.3-2.1,0.7-3.2h3.5l-1.1,4.6c1.4-1.8,2.8-3.2,4.2-3.9c1.4-1,2.8-1.4,4.6-1.4c1,0,2.1,0.3,2.8,0.7c0.7,0.4,1.4,1.1,1.8,1.8
	c0.4,0.7,0.4,1.7,0.4,2.8c1.4-1.8,2.4-2.8,4.2-3.9c1.4-1,3.1-1.4,4.9-1.4c0.7,0,1.4,0,2.1,0.4c0.7,0.4,1.4,0.7,1.8,1.1
	c0.4,0.7,0.7,1.4,1.1,2.1c0.4,0.7,0.4,1.7,0.4,2.8C430.7,160,430.7,160.4,430.7,160.7z M436.7,177.2c0,0.4-0.7,0.7-1.1,1.1
	c-0.7,0.4-1.1,0.4-1.8,0.4c-0.4,0-1.1-0.4-1.4-0.4c-0.3-0.4-0.3-0.7-0.7-1.1c-0.4-0.3-0.4-0.7-0.4-1.4c0.3-0.7,0.3-1.4,0.7-1.8
	c0-0.4,0.7-0.7,1.1-1.1c0.7-0.4,1.1-0.4,1.8-0.4c0.3,0,1,0,1.4,0.4c0.3,0.4,0.3,0.7,0.7,1.1c0.4,0.3,0.4,0.7,0.4,1.4
	C437.1,176.1,437.1,176.8,436.7,177.2z M459.5,173.5c-1.1,1-2.1,2.1-3.2,2.8c-1.1,0.7-2.5,1.5-3.9,1.8c-1.4,0.3-2.8,0.7-4.6,0.7
	c-1.4,0-2.8-0.3-3.9-0.7c-1.1-0.7-1.8-1-2.5-2.1c-0.7-0.7-0.7-2.1-0.7-3.5c0-0.4,0.4-1.1,0.4-1.8c0-0.7,0.4-1.1,0.4-1.8l7.4-26.1
	v0.4h4.6l-4.6,15.5c1-1,1.7-2.1,2.8-2.8c1.1-0.7,2.1-1.4,3.2-1.8c1.1-0.3,2.1-0.7,3.2-0.7c1.1,0,2.1,0.3,3.2,0.7
	c1,0.7,1.7,1.4,2.1,2.1c0.7,0.7,0.7,1.7,1.1,2.8v3.2c0,1.4-0.3,2.5-0.7,3.9c-0.7,1.4-1.1,2.5-1.8,3.9
	C461.3,171.4,460.6,172.5,459.5,173.5z M479.6,157.5h-0.4h-0.7c-0.7,0-1.8,0.3-2.5,0.7c-1.1,0.3-1.8,1-2.5,2.1s-1.4,2.1-2.1,3.2
	c-0.3,1.1-1,2.5-1.4,3.9l-2.8,10.6h0l-4.5-0.4l4.2-15.5c0.3-1.1,0.3-2.1,0.7-3.2c0.3-1,0.3-1.7,0.7-2.8c0.3-0.7,0.7-1.8,0.7-2.5h3.6
	c-0.3,0.7-0.3,1.8-0.7,2.5c-0.3,1-0.3,1.7-0.7,2.8c0.7-1,1.4-2.1,2.1-2.8c1-1,1.7-1.7,2.8-2.1c1.1-0.3,2.1-0.7,3.2-0.7h0.7h0.7
	L479.6,157.5z M463,136.8c-2.1,0.7-3.5,0.4-3.5-2.1c-0.7-15.2,39.4-21.5,32.7-28.2c-2.1-3.5-31-25.4-11.6-25
	c7.8,0,25.7,12.7,31,18.3c9.8,10.2-12.4,19-20.4,23.3C485.9,125.9,471.1,133.6,463,136.8z M523.5,122.3c-5,2.5-18.7,9.9-26.1,12.7
	c-2.1,0.7-3.5,0.3-3.5-1.8c-0.7-14.1,36.3-19.8,30.3-26.1c-2.1-3.1-28.9-23.6-10.9-23.2c6.7,0.4,23.6,12,28.5,17.3
	C550.6,110.7,530.2,118.8,523.5,122.3z"/>
<path class="st1" d="M131.7,22.3c5.3-4.9,2.8-14.8-7.4-10.9c-15.8,8.1-31.7,18.3-50,36.3c-7.7,7.4-12,3.5-10.2-2.1
	c2.8-7.4,4.9-15.2,6.3-22.9C73.2,9.3,63,8.6,57.7,18.5c-18.3,31.7-32,72.9-44.3,115.1c9.8,1.4,19,1.1,26.8-15.5
	C44.1,104,49.4,97.6,55,90.6c6.7-9.2,13-7.4,15.5,1.4c3.5,10.9,5.6,22.5,8.1,33.8c1,7.4,16.5,17.7,20.4,0.4c1-10.2,0-20.8-1.8-31
	C89.5,59.3,108.8,39.9,131.7,22.3z M30.3,90.3c2.1-5.6,3.9-11.3,6-16.9C43,55.1,50.7,37.1,60.6,20.1c0.7-1.7,2.1-3.5,3.5-4.2
	c0.4-0.4,1.4-0.4,1.8-0.4c0.3,0.4,0.7,0.7,0.7,1.1c0.7,1.4,0.4,3.5,0,5.3c-1.4,7.4-3.8,14.8-6.3,22.2v0.4c-0.7,3.2-0.4,7.1,2.1,9.2
	c1.7,1.5,4.5,1.8,7,1.1c2.4-0.7,4.9-2.5,7-4.6c8.1-8.1,16.5-15.2,25.7-21.5c7.4-5.3,15.5-9.9,23.6-14.1c1.1-0.7,3.5-1.4,4.6,0
	c1,1.4,0,3.5-1.1,4.6C118.3,27.6,107,37.1,100,49.1c-4.9,8.1-7.4,16.6-8.1,25C68,75.2,46.8,80.1,30.3,90.3z"/>
<path class="st1" d="M459.4,97.3c12-20.8,22.2-46.1,31.3-73.9c3.9-13-13-14.8-17.6-5.6c-8.7,15.5-16.8,44.7-24.6,80.2
	C448.1,103.6,453.1,105.7,459.4,97.3z M464.4,51.1c1.8-6.3,3.5-12.3,6-18.3c1.7-4.5,3.8-9.5,6.3-13.7c1-2.1,2.8-3.1,4.9-3.5
	c1.8-0.3,3.9-0.3,5.3,1.1c1.4,1.4,1.4,3.5,0.7,5.3c-5.3,16.2-11.3,32.4-18.3,47.9c-3.9,2.1-7.7,3.9-11.6,4.8
	C459.8,66.9,461.9,58.8,464.4,51.1z"/>
<path class="st1" d="M143.6,69.5c5.3-6,11.3-9.8,18.7-6c6.7,2.8,3.2,13-3.5,15.8c-15.8,3.2-28.1,5.3-38,12
	c-16.9,13.1-16.6,23.3-14.1,35.6c3.2,14.5,29.9,10.6,39.1,2.5c2.1,3.2,4.5,5.3,7.7,5.3h10.2c3.5,0,5.3-1.4,5.3-4.2
	c-0.3-27.5,28.9-66.6,16.2-81c-18.3-16.2-57.4,1-58.1,13.7C125.3,69.5,141.5,74.4,143.6,69.5z M155,111c-7.8,8.5-18.7,9.9-20.8,4.6
	c-1.1-4.9-1.8-8.4,7.7-15.8c5.3-3.5,13.7-6.7,16.9-5.6C163.4,96.3,162.7,102.6,155,111z M130.7,63.7c0.3-3.5,5.2-7,7.7-8.8
	c5.3-3.8,12.4-6.3,18.7-7.7c7-1.4,15.1-1.4,21.8,2.1c1.4,0.4,2.5,1.4,3.9,2.5c0.3,0.4,0.7,0.7,0.7,1.1c2.8,4.6,1,12.4-0.4,17.3
	c-0.7,2.8-1.4,5.3-2.5,8.1c-4.6-0.3-8.8-1-13.5-0.7c2.5-3.5,3.5-8.4,1.4-12.3c-1.1-2.1-2.5-3.9-4.6-4.6c-9.5-4.3-16.6,0-22.9,7
	l-0.4,0.4c-1.1,0.7-4.2,0-5.3-0.4c-1.1-0.4-4.6-1.8-4.6-3.2V63.7z"/>
<path class="st1" d="M440.8,112.5c-4.9,4.9-10.2,12.7-8.4,19c2.8,3.9,7.4,1.8,11.6,0.7c6.3-2.5,11.2-6.7,11.6-14.1
	C458.4,112.1,447.5,106.2,440.8,112.5z"/>
<path class="st1" d="M193.7,136.1c9.9,0,19.7-0.4,29.6-0.4c13-1.1,25.7-6.3,36.3-19c1.8-2.1,3.5-1.1,3.2,0.4
	c0,14.4,12.7,29.2,37.3,11.3c5.3-2.8,7-2.5,7,0.7c0,2.1-0.7,4.2-1.4,6c13.7,1.1,27.8-27.1,42.6-82.7c0.7-8.4-4.9-12-12.7-4.2
	c-10.2,9.5-14.4,46.8-24.6,59.5c-13.7,20.4-27.1,8.8-24.6-0.7c5.6-25.7,12.7-30.3,16.9-53.5c2.1-11.6-10.2-13.7-17.3-2.5
	c-4.6,8.1-7.7,16.9-10.2,25.7c-3.2,8.4-8.1,7.7-9.5,2.8c-0.7-4.2-3.5-7.7-7-10.6c15.1-10.6,26.1-23.2,23.2-44.4
	c-2.1-10.2-14.1-13.7-32.4-13c-12.8-0.1-26.5-0.4-39.9-0.8c-12.7,36.6-25,76-29.9,108.1C178.9,134.3,183.8,136.1,193.7,136.1z
	 M326.7,80.2c1.7-6.3,3.1-12.3,5.6-18.3c1.1-3.2,3.5-8.4,6-10.9c1.4-1.1,2.8-2.5,4.6-3.2c0.3,0,1-0.4,1.4,0c1.1,0.3,1.1,3.1,1.1,4.2
	c-3.2,12-6.7,23.9-10.9,35.9c-0.7,1.7-1.4,3.1-1.8,4.9c-3.5,0-6.7,0-9.9,0.1C324.2,88.6,325.3,84.4,326.7,80.2z M233.4,113.9
	c-4.9,0.4-11.2,0-16.5,0c-3.1-0.3-4.9-2.4-4.9-7c2.1-13.7,4.5-22.5,7.7-25.7h25.7C267.6,82.9,256.6,113.2,233.4,113.9z M206.3,38.2
	c2.4-7.7,5.2-15.5,7.7-23.2c12.4,0.3,25,0.7,37.7,0.7c8.1,0,26.4,0,28.9,10.2c2.5,19-7,30.6-21.8,40.8l-3.9,2.5l3.5,2.8
	c2.8,2.1,4.9,4.9,5.6,8.4c0.4,2.8,2.5,5.3,5.3,6c5.3,1.5,8.8-4.2,10.6-8.4v-0.4c2.2-8.4,5.7-16.9,9.9-24.6c1.4-2.5,3.1-4.6,5.6-5.3
	c1.4-0.4,2.8-0.7,3.9,0c1.8,1.1,1.4,3.9,1.4,5.3c-0.7,4.6-1.8,8.8-3.2,13c-1.4,3.5-2.5,7-3.9,10.2c-1.7,4.3-3.5,8.5-4.9,12.7
	c-0.3,0.3-0.3,1-0.7,1.4c-9.2-0.7-18.3-1.4-27.8-2.8c0-0.7-0.4-1-0.4-1.4c-2.5-5.6-8.5-8-14.1-8.4h-0.4c-8.4,0-17.3-0.4-25.7-0.4
	h-1.4l0.4,1.4c-1,1.1-2.1,2.5-2.8,3.9c-7.4-0.7-14.8-1.8-21.8-2.5C197.5,66,201.7,51.9,206.3,38.2z"/>
<path class="st1" d="M364.3,83.1c5.3-14.4,8.5-11.9,7.4,1.1c-1,12.4-2.1,24.3-2.8,36.3c-0.3,19.4,11.3,20.1,22.9,2.5
	c9.9-14.8,15.9-27.8,23.6-41.9c6.4-11.9,13.1-17.2,10.6-7c-4.5,16.9-9.1,34.1-13.7,51.4c-1.7,11.3,10.9,7.8,14.1-2.1
	c14.7-31.7,26-64.4,32-98.9c5.6-19.7-18-14.8-25-3.2c-9.9,16.2-19.7,32-29.6,48.2c-3.6,4.9-10.3,6-9.9-1.4c1.1-13,1.8-26.1,2.5-39.1
	c1.4-18.7-15.5-23.3-25-4.6c-19.7,34.2-32,72.6-44.7,111.3C337.3,137.5,348.6,130.8,364.3,83.1z M374.2,27.5
	c1.8-3.5,4.2-6.7,7.4-8.8c1.8-0.7,3.9-1.4,6-0.7c4.9,1.7,5.3,8.1,5.3,12.3c-0.7,13-1.8,26.1-2.5,39.1c0,3.1,1.1,7,4.6,8.4
	c4.6,2.1,9.5-1.4,12-5.3c9.8-15.9,19.7-32.1,29.9-47.9c1.4-2.1,3.2-3.9,5.3-5.3c2.1-1.4,4.9-2.8,7.7-3.2c1.4,0,3.5-0.4,4.9,0.7
	c2.1,1.8,1.1,6,0.7,8.1c-3.5,19.3-8.4,38.3-15.1,57c-4.2,1-8.4,2.4-13,3.5l2.5-9.9c0.7-3.2,1.4-7.7-2.1-9.5
	c-1.8-1.1-3.5-0.4-5.3,0.7c-1.1,0.7-2.5,2.1-3.2,3.2c-2.8,2.8-4.9,6.7-6.7,10.2c-1.7,3.2-3.1,6.4-4.9,9.2
	c-10.6,1.4-21.5,2.8-32.4,3.5l0.4-7.4c0-2.8,0.4-5.6,0-8.4c-0.3-2.5-1.4-5.3-4.2-6s-4.9,1.4-6.3,3.5c-1.4,2.4-2.8,5.6-3.9,8.4
	c-1.4,3.2-2.5,6.7-3.9,10.2v0c-4.3,0-8.5,0-12.8,1.3C352.7,71.5,361.9,48.6,374.2,27.5z"/>
<path class="st1" d="M228.8,60.6c2.5,2.1,5.6,2.5,8.8,2.5h2.8c9.9,0.3,19.1-1.1,26.1-8.1c2.1-2.4,4.2-4.9,5.6-7.7
	c5-11.7,0.7-18.7-12.3-18.7c-7,0.4-14.4,0.4-21.8,0.4c-6.3,0-9.2,11-10.2,15.9c-0.7,2.8-1.4,6-1.4,8.8h0
	C226,56.5,226.4,59,228.8,60.6z M230,54.1c0-8.1,3.8-21.5,7.7-21.5c7.3,0,14.7-0.4,22.6-0.3c10.6,0,12.7,4.5,8.8,13.7
	c-5.3,9.2-12.3,14.5-28.5,14.1C235.6,59.7,229.3,60.8,230,54.1z"/>
<path class="st1" d="M171.8,154l0.1,0l0.2-0.3h-4.2l-7.7,13.7c-0.7,1.1-1.1,2.1-1.4,3.2c-0.4,1.1-0.7,2.1-1.4,2.8v-2.8
	c0,0,0-2.1,0-3.5l-0.4-13.7h-3.5l-8.4,14.1c-0.7,1.1-1.4,2.5-1.8,3.2c-0.7,1.1-1.1,1.8-1.4,2.8c0-0.7,0-1.4,0.4-1.8v-2.1v-2.5
	l0.4-13.7l-4.3,0.6l0,0l0.4,24.3h3.9l8.1-13.4c0.4-0.7,0.7-1.4,1.1-2.1c0.4-0.7,0.7-1.4,1.1-2.1s0.7-1.4,1.1-2.1
	c0,1.1,0,2.1-0.4,3.2v3.2l0.4,13h3.9l13.8-23.8L171.8,154L171.8,154z"/>
<polygon class="st1" points="171.8,154 171.8,154 171.8,154.2 171.9,154 "/>
<polygon class="st1" points="138.4,154 138.4,154 138.4,154 "/>
<path class="st1" d="M138.4,154l0.2-0.3h-4.2l-7.4,14.1c-0.7,1.1-1.1,2.1-1.4,3.2c-0.4,1.1-0.7,2.1-1.4,2.8V171v-3.5l-0.4-13.7h-3.5
	l-8.4,14.1c-0.7,1.1-1.4,2.5-1.8,3.2c-0.7,1.1-1.1,1.8-1.4,2.8c0-0.7,0-1.4,0.4-1.8V170v-2.5l0.4-13.7l-4.2,0.2l0.4,24.3h3.5
	l8.1-13.4c0.4-0.7,0.7-1.4,1.1-2.1c0.4-0.7,0.7-1.4,1.1-2.1s0.7-1.4,1.1-2.1c0,1.1,0,2.1-0.4,3.2v3.2l0.4,13h3.9L138.4,154
	L138.4,154L138.4,154z"/>
<path class="st1" d="M193.6,167.8c-0.7,1.1-1.1,2.1-1.4,3.2c-0.4,1.1-0.7,2.1-1.4,2.8V171v-3.5l-0.4-13.7H187l-8.4,14.1
	c-0.7,1.1-1.4,2.5-1.8,3.2c-0.7,1.1-1.1,1.8-1.4,2.8c0-0.7,0-1.4,0.4-1.8V170v-2.5l0.4-13.7l-4.3,0.2l-0.1,0.2l0.4,24.1h3.9
	l8.1-13.4c0.4-0.7,0.7-1.4,1.1-2.1s0.7-1.4,1.1-2.1c0.4-0.7,0.7-1.4,1.1-2.1c0,1.1,0,2.1-0.4,3.2v3.2l0.4,13h3.9l14.1-24.3H201
	L193.6,167.8z"/>
<path class="st1" d="M203.9,172.9c-0.7-0.7-1.1-0.7-1.8-0.7c-0.7,0-1.1,0-1.8,0.4c-0.4,0.4-1.1,0.7-1.1,1.1
	c-0.4,0.4-0.4,1.1-0.7,1.8c0,0.7,0,1.1,0.4,1.4c0.4,0.3,0.4,0.7,0.7,1.1c0.7,0.3,1.1,0.7,1.8,0.7c0.7,0,1.1,0,1.8-0.4
	c0.4-0.4,1.1-0.7,1.1-1.1c0.4-0.4,0.4-1.1,0.7-1.8c0-0.7,0-1.1-0.4-1.4C204.2,173.6,204.2,173.3,203.9,172.9z"/>
<path class="st1" d="M464.5,162.2V159c-0.4-1.1-0.4-2.1-1.1-2.8c-0.4-0.7-1.1-1.4-2.1-2.1c-1.1-0.4-2.1-0.7-3.2-0.7
	c-1.1,0-2.1,0.4-3.2,0.7c-1.1,0.4-2.1,1.1-3.2,1.8c-1.1,0.7-1.8,1.8-2.8,2.8l4.6-15.5h-4.6v-0.4l-7.4,26.1c0,0.7-0.4,1.1-0.4,1.8
	c0,0.7-0.4,1.4-0.4,1.8c0,1.4,0,2.8,0.7,3.5c0.7,1.1,1.4,1.4,2.5,2.1c1.1,0.4,2.5,0.7,3.9,0.7c1.8,0,3.2-0.4,4.6-0.7
	c1.4-0.3,2.8-1.1,3.9-1.8c1.1-0.7,2.1-1.8,3.2-2.8c1.1-1,1.8-2.1,2.5-3.5c0.7-1.4,1.1-2.5,1.8-3.9
	C464.2,164.7,464.5,163.6,464.5,162.2z M459.8,162.9c0,1.1-0.4,2.1-0.7,3.5c-0.4,1.1-1.1,2.5-1.4,3.5c-0.7,1.1-1.4,2.1-2.5,3.2
	c-1.1,1.1-1.8,1.8-2.8,2.1c-1,0.3-2.1,0.7-3.5,0.7c-1.4,0-2.1-0.4-2.8-1.1c-0.7-0.7-0.7-1.4-0.7-2.5c0-0.7,0-1.1,0.4-1.8
	c0-0.4,0.4-1.1,0.4-1.4l0.2-2.7c0.4-1.4,1.1-2.8,1.8-3.9c0.7-1.1,1.4-2.1,2.1-2.8c0.7-0.7,1.8-1.4,2.5-1.8c1.1-0.4,1.8-0.7,2.8-0.7
	c0.7,0,1.4,0,2.1,0.4c0.7,0.4,1.1,0.7,1.4,1.4c0.4,0.7,0.7,1.1,0.7,1.8V162.9z"/>
<path class="st1" d="M344.3,162.6c0-0.3,0.4-1.1,0.4-1.4s0-1.1,0-1.4c0-1.4,0-2.5-0.4-3.5c-0.4-1.1-1.1-1.8-1.8-2.1
	c-0.7-0.4-1.8-0.7-3.2-0.7c-1.1,0-2.1,0-3.2,0.4c-1.1,0.4-2.1,0.7-2.8,1.4c-1.1,0.7-1.8,1.4-2.8,2.5c0-0.7,0-1.1-0.4-1.8
	c-0.4-0.7-0.4-1.1-1.1-1.4c-0.4-0.4-1.1-0.7-1.8-1.1c-0.7-0.4-1.2-0.5-2.2-0.5c-1.4,0-3.2,0.4-4.6,1.1c-1.4,0.7-2.8,1.8-4.2,3.5
	l0.7-3.9h-6.3c-0.4,1.1-0.4,2.5-0.7,3.5c-0.4,1.4-0.7,2.8-1.1,4.2l-4.6,16.5l7.4,0.1l0,0l2.8-10.9c0.4-1.8,1.1-3.2,1.8-4.2
	c0.7-1.1,1.4-2.1,2.5-2.8c0.7-0.7,1.8-1.1,2.5-1.1s1.1,0,1.4,0.4c0.4,0.4,0.4,0.7,0.7,1.1v1.4c0,0.4,0,0.7-0.4,1.4
	c0,0.4-0.4,1.1-0.4,1.4L319,178h7l2.8-10.9c0.4-1.8,1.1-3.2,1.8-4.2c0.7-1.1,1.4-2.1,2.1-2.8s1.8-1.1,2.5-1.1s1.1,0,1.4,0.4
	c0.4,0.4,0.7,0.7,0.7,1.1v1.4c0,0.4,0,1.1-0.4,1.4c0,0.4-0.4,1.1-0.4,1.4l-3.5,13.4h7l3.9-14.1C343.9,163.6,344.3,162.9,344.3,162.6
	z"/>
<path class="st1" d="M394.8,163.2c0-1.4,0-2.5-0.4-3.9c-0.4-1.1-0.7-2.1-1.4-3.2c-0.7-1.1-1.8-1.8-2.8-2.1c-1.1-0.7-2.5-0.7-4.2-0.7
	c-1.4,0-3.2,0.4-4.6,0.7c-1.4,0.7-2.8,1.4-3.9,2.1c-1.1,1.1-2.1,2.1-3.2,3.5c-1.1,1.4-1.8,2.8-2.1,4.2c-0.7,1.4-1.1,3.2-1.1,4.6
	c0,1.4,0,2.8,0.4,3.9c0.4,1.1,0.7,2.1,1.4,3.2c0.7,1.1,1.8,1.8,2.8,2.1c1.4,0.7,2.8,1.1,4.2,1.1v0c1.8,0,3.2-0.4,4.6-0.7
	c1.4-0.7,2.8-1.4,3.9-2.5c1.1-1.1,2.1-2.1,3.2-3.5c1.1-1.4,1.4-2.8,2.1-4.2C394.1,166.4,394.4,165,394.8,163.2z M390.4,162.8
	c0,1.1-0.4,2.1-0.7,3.5c-0.4,1.1-0.7,2.1-1.4,3.2c-0.7,1.1-1.4,1.8-2.1,2.8c-0.7,0.7-1.8,1.4-2.5,1.8c-1,1.1-2.1,1.1-3.1,1.1v0
	c-1.1,0-2.1-0.4-2.8-1.1c-0.7-0.7-1.4-1.4-1.8-2.5c-0.4-1.1-0.4-2.1-0.4-3.5c0-1.1,0.4-2.1,0.7-3.5c0.4-1.1,0.7-2.1,1.4-3.2
	c0.7-1.1,1.4-1.8,2.1-2.8c0.7-0.7,1.8-1.4,2.5-1.8c1.1-0.4,1.8-0.7,2.8-0.7s2.1,0.4,2.8,0.7c0.7,0.4,1.1,1.1,1.8,1.8
	c0.4,0.7,0.7,1.4,0.7,2.1V162.8z"/>
<path class="st1" d="M479.3,153.3c-1.1,0-2.1,0.4-3.2,0.7c-1.1,0.4-1.8,1.1-2.8,2.1c-0.7,0.7-1.4,1.8-2.1,2.8
	c0.4-1.1,0.4-1.8,0.7-2.8c0.4-0.7,0.4-1.8,0.7-2.5H469c0,0.7-0.4,1.8-0.7,2.5c-0.4,1.1-0.4,1.8-0.7,2.8c-0.4,1.1-0.4,2.1-0.7,3.2
	l-4.2,15.5l4.5,0.4h0l2.8-10.6c0.4-1.4,1.1-2.8,1.4-3.9c0.7-1.1,1.4-2.1,2.1-3.2s1.4-1.8,2.5-2.1c0.7-0.4,1.8-0.7,2.5-0.7h0.7h0.4
	l1.1-4.2H480H479.3z"/>
<polygon class="st1" points="397.8,178 397.8,178 397.8,178 "/>
<path class="st1" d="M436.3,172.9c-0.4-0.4-1.1-0.4-1.4-0.4c-0.7,0-1.1,0-1.8,0.4c-0.4,0.4-1.1,0.7-1.1,1.1
	c-0.4,0.4-0.4,1.1-0.7,1.8c0,0.7,0,1.1,0.4,1.4c0.4,0.4,0.4,0.7,0.7,1.1c0.3,0,1,0.4,1.4,0.4c0.7,0,1.1,0,1.8-0.4
	c0.4-0.4,1.1-0.7,1.1-1.1c0.4-0.4,0.4-1.1,0.7-1.8c0-0.7,0-1.1-0.4-1.4C436.6,173.6,436.6,173.3,436.3,172.9z"/>
<polygon class="st1" points="368.6,173.7 368.6,173.7 368.6,173.7 "/>
<path class="st1" d="M429.2,154.4c-0.4-0.4-1.1-0.7-1.8-1.1c-0.7-0.4-1.4-0.4-2.1-0.4c-1.8,0-3.5,0.4-4.9,1.4
	c-1.8,1.1-2.8,2.1-4.2,3.9c0-1.1,0-2.1-0.4-2.8c-0.4-0.7-1.1-1.4-1.8-1.8c-0.7-0.4-1.8-0.7-2.8-0.7c-1.8,0-3.2,0.4-4.6,1.4
	c-1.4,0.7-2.8,2.1-4.2,3.9l1.1-4.6H400c-0.4,1.1-0.4,2.1-0.7,3.2c-0.4,1.1-0.7,2.5-1.1,3.9l-4.6,17.3h4.2l3.2-12
	c0.4-1.4,0.7-2.5,1.4-3.5c0.7-1.1,1.4-2.1,2.1-2.8c0.7-0.7,1.8-1.4,2.5-1.8s1.8-0.7,2.5-0.7c1.1,0,1.8,0.4,2.1,0.7
	c0.4,0.4,0.7,1.1,1.1,1.4v2.1c0,0.4,0,1.1-0.4,1.4c0,0.4-0.4,1.1-0.4,1.4l-3.9,14.1h3.9l3.2-12.3c0.4-1.4,0.7-2.5,1.4-3.5
	c0.7-1.1,1.4-2.1,2.1-2.8s1.4-1.4,2.5-1.8c0.7-0.4,1.8-0.7,2.5-0.7c1.1,0,1.8,0,2.1,0.4c0.4,0.4,0.7,0.7,1.1,1.4
	c0.4,0.7,0.4,1.4,0,2.1c0,0.4,0,1.1-0.4,1.4c0,0.7-0.4,1.1-0.4,1.4l-3.9,13.7h3.9l3.9-14.1c0-0.4,0.4-1.1,0.4-1.4s0.4-1.1,0.4-1.4
	s0-0.7,0-1.4c0-1.1,0-2.1-0.4-2.8C429.9,155.8,429.6,155.1,429.2,154.4z"/>
<path class="st1" d="M367.2,174.4c-0.7,0.4-1.1,0.4-1.8,0.4c-0.7,0-1.4,0.4-2.5,0.4c-1.4,0-2.5-0.4-3.2-0.7
	c-0.7-0.3-1.4-1.4-1.8-2.1c-0.4-1.1-0.4-2.1-0.4-3.5c0-1.1,0.4-2.1,0.7-3.5c0.4-1.1,1.1-2.1,1.8-3.2c0.7-1.1,1.4-1.8,2.5-2.8
	c1.1-0.7,1.8-1.4,2.8-1.8c1-0.4,2.1-0.7,3.5-0.7c1.1,0,1.8,0,2.5,0.4c0.7,0,1.1,0.4,1.8,0.7l1.4-3.2c-0.4,0-0.7-0.4-1.1-0.4
	c-0.4,0-1.1-0.4-1.8-0.4c-0.7,0-1.4,0-2.1-0.4c-1.8,0-3.5,0.4-4.9,0.7c-1.4,0.7-2.8,1.4-4.2,2.5c-1.4,1.1-2.5,2.1-3.5,3.5
	c-1.1,1.4-1.8,2.8-2.5,4.2c-0.7,1.4-1.1,3.2-1.1,4.9c0,1.4,0,2.5,0.4,3.5c0.4,1.1,0.7,2.1,1.4,2.8c0.7,0.7,1.8,1.4,2.8,2.1
	c1.1,0.4,2.5,0.7,3.9,0.7c1.1,0,2.1,0,3.2-0.4c1.1,0,1.8-0.4,2.5-0.7c0.7-0.4,1.4-0.4,1.8-0.7l-0.7-3
	C368.2,174.1,367.5,174.1,367.2,174.4z"/>
<path class="st1" d="M255,154c-0.7-0.4-1.8-0.4-2.8-0.4h-2.8c-2.5,0-4.6,0.4-6.3,1.1c-2.1,0.7-3.5,1.4-5.3,2.5
	c-1.4,1.1-2.8,2.5-3.9,3.9c-1.1,1.4-1.8,2.8-2.5,4.6c-0.7,1.8-1.1,3.2-1.1,4.9s0,3.2,0.7,4.6c0.4,1.4,1.4,2.1,2.5,2.8
	c1.1,0.7,2.5,1.1,3.9,1.1c1.1,0,1.8,0,2.8-0.4c1-0.4,2.1-1.1,2.8-1.8c1.1-0.7,1.8-1.8,2.8-3.2c0,0.7-0.4,1.8-0.4,2.5
	c0,0.7-0.4,1.8-0.4,2.5h6.3l0.1-0.7l0,0c0-0.7,0-1.8,0.4-2.5c0-1.1,0.4-1.8,0.4-2.8c0-1.1,0.4-2.1,0.7-2.8c0.4-1.1,0.4-1.8,0.7-2.5
	l3.5-12.7C256.4,154.3,255.7,154.3,255,154z M246.8,164.2c-0.7,2.1-1.1,3.5-2.1,4.9c-0.7,1.4-1.4,2.1-2.5,2.8
	c-0.7,0.7-1.4,0.7-2.5,0.7c-0.7,0-1.1,0-1.8-0.4c-0.4-0.4-0.7-0.7-0.7-1.4c0-0.7-0.4-1.4,0-2.1c0-1.1,0.4-1.8,0.7-2.8
	c0.4-1.1,0.7-1.8,1.4-2.8c0.7-1.1,1.1-1.8,1.8-2.5c0.7-0.7,1.4-1.4,2.5-1.8c0.7-0.4,1.8-0.7,2.8-0.7h1.1h1.1L246.8,164.2z"/>
<path class="st1" d="M280.6,157.8c-0.4-1.1-0.7-1.8-1.1-2.8c-0.7-0.7-1.4-1.4-2.1-1.8c-1.1-0.4-2.1-0.7-3.2-0.7
	c-1.1,0-2.1,0-2.8,0.4c-1.1,0.4-1.8,0.7-2.8,1.1c-0.7,0.4-1.4,1.1-2.1,1.8l4.2-14.1h-7.4l0.1,1.1l-7,24.6c-0.4,0.7-0.4,1.4-0.7,2.1
	c0,0.7-0.4,1.4-0.4,2.1c-0.4,2.1,0.4,3.9,1.8,4.9c1.4,1,3.5,1.8,6.3,1.8c2.1,0,4.2-0.4,6-1.1s3.5-1.4,4.9-2.8
	c1.4-1.1,2.5-2.5,3.5-3.9c1.1-1.4,1.8-2.8,2.1-4.6c0.7-1.8,1.1-3.2,1.1-4.9C281,159.9,281,158.9,280.6,157.8z M273.8,163.1
	c0,0.7-0.4,1.8-0.7,2.8c-0.4,1.1-0.7,1.8-1.1,2.8c-0.4,0.7-1.1,1.8-1.8,2.5c-0.7,0.7-1.4,1.4-2.1,1.8c-0.7,0.4-1.4,0.7-2.5,0.7
	c-0.7,0-1.4-0.4-1.8-0.7c-0.4-0.4-0.7-1.1-0.7-2.1v-1.4c0-0.4,0.4-0.7,0.4-1.4l0.6-2.5h0c0.4-1.4,1.1-2.5,1.8-3.5
	c0.7-1.1,1.4-1.8,2.5-2.5c0.7-0.7,1.8-0.7,2.5-0.7s1.4,0.4,1.8,0.7c0.4,0.3,0.7,0.7,1.1,1.4C274.2,161.7,274.2,162.4,273.8,163.1z"
	/>
<path class="st1" d="M348.9,172.9c-0.4-0.7-1.1-0.7-1.4-0.7c-0.7,0-1.1,0-1.8,0.4c-0.4,0.4-1.1,0.7-1.1,1.1
	c-0.4,0.4-0.4,1.1-0.7,1.8c0,0.7,0,1.1,0.4,1.4c0.4,0.4,0.4,0.7,0.7,1.1c0.3,0.4,0.7,0.7,1.4,0.7s1.1,0,1.8-0.4
	c0.4-0.4,1.1-0.7,1.1-1.1c0.4-0.4,0.4-1.1,0.7-1.8c0-0.7,0-1.1-0.4-1.4C349.2,173.6,349.2,173.3,348.9,172.9z"/>
<path class="st1" d="M235.6,153.8h-8.8l-6.7,7.4c-0.4,0.4-0.7,0.7-1.1,1.4c-0.4,0.4-0.7,1.1-1.4,1.4l6-21.1h-7l-9.9,35.2h6.7V178
	l2.1-7.7l2.8-2.5l3.5,10.6h8.1l-5.6-14.4L235.6,153.8z"/>
<path class="st1" d="M300.3,153.7L300.3,153.7l-3.2,11.3c-0.4,1.8-1.1,3.2-1.8,4.2c-0.7,1.1-1.4,2.1-2.5,2.8
	c-0.7,0.7-1.8,1.1-2.5,1.1s-1.1,0-1.4-0.4c-0.4-0.4-0.7-0.7-0.7-1.1s0-1.1,0-1.4s0-1.1,0.4-1.4c0-0.7,0.4-1.1,0.4-1.8l3.5-13h-7
	l-3.9,13.7c0,0.4,0,1.1-0.4,1.8c0,0.7-0.4,1.4-0.4,2.1c0,1.4,0,2.8,0.4,3.9c0.4,1.1,1.1,1.8,2.1,2.1c1.1,0.4,2.1,0.7,3.2,0.7
	c1.4,0,2.8-0.4,4.6-1.1c1.4-0.7,2.8-1.8,4.2-3.5l-0.7,3.9h6.3c0.4-1.1,0.7-2.5,1.1-3.5c0.4-1.4,0.7-2.8,1.1-4.2l4.6-16.5
	L300.3,153.7z"/>
<path class="st2" d="M334.5,87.9c4.2-12,7.7-23.9,10.9-35.9c0-1.1,0-3.9-1.1-4.2c-0.4-0.4-1.1,0-1.4,0c-1.8,0.7-3.2,2.1-4.6,3.2
	c-2.5,2.5-4.9,7.7-6,10.9c-2.5,6-3.9,12-5.6,18.3c-1.4,4.2-2.5,8.4-3.9,12.7c3.2-0.1,6.4-0.1,9.9-0.1
	C333.1,91,333.8,89.6,334.5,87.9z"/>
<path class="st2" d="M487.6,22c0.7-1.8,0.7-3.9-0.7-5.3c-1.4-1.4-3.5-1.4-5.3-1.1c-2.1,0.4-3.9,1.4-4.9,3.5
	c-2.5,4.2-4.6,9.2-6.3,13.7c-2.5,6-4.2,12-6,18.3c-2.5,7.7-4.6,15.8-6.7,23.6c3.9-0.9,7.7-2.7,11.6-4.8
	C476.3,54.4,482.3,38.2,487.6,22z"/>
<path class="st2" d="M357.4,93.1c1.4-3.5,2.5-7,3.9-10.2c1.1-2.8,2.5-6,3.9-8.4c1.4-2.1,3.5-4.2,6.3-3.5s3.9,3.5,4.2,6
	c0.4,2.8,0,5.6,0,8.4l-0.4,7.4c10.9-0.7,21.8-2.1,32.4-3.5c1.8-2.8,3.2-6,4.9-9.2c1.8-3.5,3.9-7.4,6.7-10.2c0.7-1.1,2.1-2.5,3.2-3.2
	c1.8-1.1,3.5-1.8,5.3-0.7c3.5,1.8,2.8,6.3,2.1,9.5l-2.5,9.9c4.6-1.1,8.8-2.5,13-3.5c6.7-18.7,11.6-37.7,15.1-57
	c0.4-2.1,1.4-6.3-0.7-8.1c-1.4-1.1-3.5-0.7-4.9-0.7c-2.8,0.4-5.6,1.8-7.7,3.2c-2.1,1.4-3.9,3.2-5.3,5.3
	c-10.2,15.8-20.1,32-29.9,47.9c-2.5,3.9-7.4,7.4-12,5.3c-3.5-1.4-4.6-5.3-4.6-8.4c0.7-13,1.8-26.1,2.5-39.1c0-4.2-0.4-10.6-5.3-12.3
	c-2.1-0.7-4.2,0-6,0.7c-3.2,2.1-5.6,5.3-7.4,8.8c-12.3,21.1-21.5,44-29.6,66.9C348.9,93.1,353.1,93.1,357.4,93.1L357.4,93.1z"/>
<path class="st2" d="M135.3,67.7c1.1,0.4,4.2,1.1,5.3,0.4l0.4-0.4c6.3-7,13.4-11.3,22.9-7c2.1,0.7,3.5,2.5,4.6,4.6
	c2.1,3.9,1.1,8.8-1.4,12.3c4.7-0.3,8.9,0.4,13.5,0.7c1.1-2.8,1.8-5.3,2.5-8.1c1.4-4.9,3.2-12.7,0.4-17.3c0-0.4-0.4-0.7-0.7-1.1
	c-1.4-1.1-2.5-2.1-3.9-2.5c-6.7-3.5-14.8-3.5-21.8-2.1c-6.3,1.4-13.4,3.9-18.7,7.7c-2.5,1.8-7.4,5.3-7.7,8.8v0.8
	C130.7,65.9,134.2,67.3,135.3,67.7z"/>
<path class="st2" d="M129.2,19.2c1.1-1.1,2.1-3.2,1.1-4.6c-1.1-1.4-3.5-0.7-4.6,0c-8.1,4.2-16.2,8.8-23.6,14.1
	C92.9,35,84.5,42.1,76.4,50.2c-2.1,2.1-4.6,3.9-7,4.6c-2.5,0.7-5.3,0.4-7-1.1c-2.5-2.1-2.8-6-2.1-9.2v-0.4
	c2.5-7.4,4.9-14.8,6.3-22.2c0.4-1.8,0.7-3.9,0-5.3c0-0.4-0.4-0.7-0.7-1.1c-0.4,0-1.4,0-1.8,0.4c-1.4,0.7-2.8,2.5-3.5,4.2
	c-9.9,17-17.6,35-24.3,53.3c-2.1,5.6-3.9,11.3-6,16.9C46.8,80.1,68,75.2,91.9,74.1c0.7-8.4,3.2-16.9,8.1-25
	C107,37.1,118.3,27.6,129.2,19.2z"/>
<path class="st2" d="M218.6,78.7l-0.4-1.4h1.4c8.4,0,17.3,0.4,25.7,0.4h0.4c5.6,0.4,11.6,2.8,14.1,8.4c0,0.4,0.4,0.7,0.4,1.4
	c9.5,1.4,18.6,2.1,27.8,2.8c0.4-0.4,0.4-1.1,0.7-1.4c1.4-4.2,3.2-8.4,4.9-12.7c1.4-3.2,2.5-6.7,3.9-10.2c1.4-4.2,2.5-8.4,3.2-13
	c0-1.4,0.4-4.2-1.4-5.3c-1.1-0.7-2.5-0.4-3.9,0c-2.5,0.7-4.2,2.8-5.6,5.3c-4.2,7.7-7.7,16.2-9.9,24.6V78c-1.8,4.2-5.3,9.9-10.6,8.4
	c-2.8-0.7-4.9-3.2-5.3-6c-0.7-3.5-2.8-6.3-5.6-8.4l-3.5-2.8l3.9-2.5c14.8-10.2,24.3-21.8,21.8-40.8c-2.5-10.2-20.8-10.2-28.9-10.2
	c-12.7,0-25.3-0.4-37.7-0.7c-2.5,7.7-5.3,15.5-7.7,23.2c-4.6,13.7-8.8,27.8-12.3,41.9c7,0.7,14.4,1.8,21.8,2.5
	C216.5,81.2,217.6,79.8,218.6,78.7z M226.4,53.7L226.4,53.7c0-2.8,0.7-6,1.4-8.8c1-4.9,3.9-15.9,10.2-15.9c7.4,0,14.8,0,21.8-0.4
	c13,0,17.3,7,12.3,18.7c-1.4,2.8-3.5,5.3-5.6,7.7c-7,7-16.2,8.4-26.1,8.1h-2.8c-3.2,0-6.3-0.4-8.8-2.5C226.4,59,226,56.5,226.4,53.7
	z"/>
<path class="st3" d="M511.6,99.8c-5.3-5.6-23.2-18.3-31-18.3c-19.4-0.4,9.5,21.5,11.6,25c6.7,6.7-33.4,13-32.7,28.2
	c0,2.5,1.4,2.8,3.5,2.1c8.1-3.2,22.9-10.9,28.2-13.7C499.2,118.8,521.4,110,511.6,99.8z M496.2,108.3v-0.4c0-1.1-0.7-2.5-1.4-3.2
	c-1.1-1.7-2.8-3.1-3.9-4.2c-2.5-2.1-4.6-4.2-6.7-6.3c-1.8-1.7-3.9-3.8-5.3-6.3c-0.4-0.4-1.8-2.5-1.8-3.2c0.7-0.7,3.1-0.7,3.9-0.4
	c6.4,0,24.3,12.7,28.9,17.6c1.1,0.7,1.8,1.8,1.8,3.2c-4.3,0.7-8.5,1.4-12.7,2.5C498,107.9,497.3,107.9,496.2,108.3z"/>
<path class="st3" d="M513.3,83.9c-18-0.4,8.8,20.1,10.9,23.2c6,6.3-31,12-30.3,26.1c0,2.1,1.4,2.5,3.5,1.8
	c7.4-2.8,21.1-10.2,26.1-12.7c6.7-3.5,27.1-11.6,18.3-21.1C536.9,95.9,520,84.3,513.3,83.9z M524.6,103.3c-1-0.7-1.7-1.4-2.1-1.8
	c-2.1-1.7-3.9-3.5-6-5.6c-1.4-1.4-6.7-6.7-6.7-8.8h0c0.7-0.3,2.8-0.3,3.5,0c6,0,21.8,11.2,26.4,15.8
	C535.2,102.9,529.9,102.9,524.6,103.3z"/>
<path class="st4" d="M509.9,101.9c-4.6-4.9-22.5-17.6-28.9-17.6c-0.8-0.3-3.2-0.3-3.9,0.4c0,0.7,1.4,2.8,1.8,3.2
	c1.4,2.5,3.5,4.6,5.3,6.3c2.1,2.1,4.2,4.2,6.7,6.3c1.1,1.1,2.8,2.5,3.9,4.2c0.7,0.7,1.4,2.1,1.4,3.2v0.4c1.1-0.4,1.8-0.4,2.8-0.7
	c4.2-1.1,8.4-1.8,12.7-2.5C511.7,103.7,511,102.6,509.9,101.9z"/>
<path class="st4" d="M509.8,87.1L509.8,87.1c0,2.1,5.3,7.4,6.7,8.8c2.1,2.1,3.9,3.9,6,5.6c0.4,0.4,1.1,1.1,2.1,1.8
	c5.3-0.4,10.6-0.4,15.1-0.4c-4.6-4.6-20.4-15.8-26.4-15.8C512.6,86.8,510.5,86.8,509.8,87.1z"/>
</svg>
