<?xml version="1.0" encoding="utf-8"?>
<!-- Generator: Adobe Illustrator 26.3.1, SVG Export Plug-In . SVG Version: 6.00 Build 0)  -->
<svg version="1.1" id="Layer_1" xmlns="http://www.w3.org/2000/svg" xmlns:xlink="http://www.w3.org/1999/xlink" x="0px" y="0px"
	 viewBox="0 0 858.2 858.2" style="enable-background:new 0 0 858.2 858.2;" xml:space="preserve">
<style type="text/css">
	.st0{fill:#FFFFFF;}
</style>
<g>
	<path class="st0" d="M543,645.6c-3.7-17.6-6.7-35.3-10.1-53.6c-17.2,0-34.8,0-53,0c0-16.1,0-31.7,0-47.5c-15.9,0-31.3,0-47.6,0
		c0-16.2,0-31.8,0-47.8c-16.1,0-31.5,0-47.2,0c0-16,0-31.6,0-47.8c15.9,0,31.4,0,47.6,0c0-16.2,0-31.8,0-48c16,0,31.4,0,47.4,0
		c0-15.9,0-31.4,0-47.4c16.2,0,31.7,0,47.3,0c0-16.2,0-31.6,0-47.8c-15.9,0-31.4,0-47.5,0c0-16.2,0-31.6,0-47.6
		c-16.1,0-31.7,0-47.2,0c0-16.1,0-31.5,0-47.7c15.9,0,31.4,0,47.4,0c0-9.6-0.3-18.5,0.2-27.4c0.2-5.1-1.6-7-6.3-8.3
		c-37.2-10.6-75-13.9-113.2-8.3c-43.8,6.4-83.1,23-115.4,53.8c-34.5,32.7-71.9,78-69.2,125.9c0.7,13.6,22.1,21.9,22.6,35.4
		c0.6,15.1-3.2,29.4-11.7,41.9c-6,8.9-12.7,17.6-20.2,25.4c-14.2,14.8-17.4,30.3-0.7,40.3c1.6,1,9.4,11.9,11,13.1
		c8.7,6.1,14.2,1.3,17,11.5c2,7,3.5,14.3,4.7,21.6c2.2,14.7,3.2,29.7,6.1,44.3c3.3,16.8,14.6,25.8,31.5,26.6
		c8.2,0.4,16.7-0.2,24.9-0.7c12.7-0.7,25.5-2.4,38.2-2.4c23.1,0.1,31.9,6.5,38.5,28.4c4.8,16.1,8.2,32.7,11.8,49.1
		c2,9.1,5,12.1,14,12.1c58.1,0,116.3,0.1,174.4,0c10.9,0,15.3-6,12.5-16.7C548.1,665.8,545.1,655.8,543,645.6z M339.7,305.6
		c-15.4,0-30.9,0-46.7,0c0-15.5,0-31,0-47.1c15.7,0,30.9,0,46.7,0C339.7,274.2,339.7,289.7,339.7,305.6z M388.3,277.1
		c15.7,0,31.3,0,47.1,0c0,14.8,0.1,29.1-0.2,43.4c0,1.3-2,3.6-3,3.6c-14.5,0.2-29,0.2-43.9,0.2C388.3,308.3,388.3,292.8,388.3,277.1
		z M352.5,388.2c0-15.6,0-31.1,0-46.9c15.6,0,31,0,46.9,0c0,15.5,0,31,0,46.9C383.9,388.2,368.4,388.2,352.5,388.2z M411.8,603.1
		c-15.5,0-30.9,0-46.9,0c0-15.8,0-31.2,0-46.9c15.8,0,31.2,0,46.9,0C411.8,571.7,411.8,587.1,411.8,603.1z"/>
	<path class="st0" d="M539.1,208.4c-15.8,0-31.4,0-47,0c0,15.8,0,31.2,0,46.9c15.8,0,31.4,0,47,0
		C539.1,239.4,539.1,224.1,539.1,208.4z"/>
	<path class="st0" d="M598.6,242.6c-15.8,0-31.4,0-47,0c0,15.8,0,31.3,0,46.9c15.8,0,31.4,0,47,0
		C598.6,273.6,598.6,258.2,598.6,242.6z"/>
	<path class="st0" d="M621.1,289c0,15.8,0,31.4,0,47c15.8,0,31.2,0,46.9,0c0-15.7,0-31.1,0-47C652,289,636.6,289,621.1,289z"/>
	<path class="st0" d="M554.6,392.9c16.1,0,31.5,0,46.9,0c0-15.9,0-31.5,0-46.9c-15.9,0-31.4,0-46.9,0
		C554.6,361.7,554.6,377.1,554.6,392.9z"/>
	<path class="st0" d="M446.6,496.3c16.1,0,31.7,0,47.2,0c0-15.8,0-31.3,0-46.9c-15.8,0-31.4,0-47.2,0
		C446.6,465.2,446.6,480.6,446.6,496.3z"/>
	<path class="st0" d="M597.3,454.9c-15.8,0-31.2,0-46.9,0c0,16.2,0,31.7,0,47.1c15.8,0,31.3,0,46.9,0
		C597.3,486.3,597.3,470.7,597.3,454.9z"/>
	<path class="st0" d="M504.8,564.9c15.8,0,31.2,0,46.8,0c0-15.8,0-31.4,0-47c-15.8,0-31.3,0-46.8,0
		C504.8,533.7,504.8,549.2,504.8,564.9z"/>
	<path class="st0" d="M497.7,438.6c15.8,0,30.9,0,46.9,0c0-16,0-31.4,0-47.1c-15.8,0-31.2,0-46.9,0
		C497.7,407.4,497.7,422.9,497.7,438.6z"/>
	<path class="st0" d="M584,594.6c15.9,0,31.4,0,47,0c0-15.8,0-31.3,0-46.8c-15.8,0-31.4,0-47,0C584,563.7,584,579.1,584,594.6z"/>
</g>
</svg>
