<?xml version="1.0" encoding="utf-8"?>
<!-- Generator: Adobe Illustrator 26.3.1, SVG Export Plug-In . SVG Version: 6.00 Build 0)  -->
<svg version="1.1" id="Layer_1" xmlns="http://www.w3.org/2000/svg" xmlns:xlink="http://www.w3.org/1999/xlink" x="0px" y="0px"
	 viewBox="0 0 64 45.7" style="enable-background:new 0 0 64 45.7;" xml:space="preserve">
<style type="text/css">
	.st0{opacity:0.2;fill-rule:evenodd;clip-rule:evenodd;enable-background:new    ;}
	.st1{fill-rule:evenodd;clip-rule:evenodd;fill:#FFFFFF;}
	.st2{fill-rule:evenodd;clip-rule:evenodd;fill:#EF5223;}
	.st3{fill-rule:evenodd;clip-rule:evenodd;fill:#F26C21;}
</style>
<g transform="matrix(1, 0, 0, 1, 285.689789, 342.437012)">
	<path class="st0" d="M-281.2-296.7c-2.1,0-4.4-1.5-4.4-4.7l0,0c-0.1-3.4,1.6-6.4,5.2-9.3c3.3-2.6,7.6-4.6,11.4-6.4
		c1-0.5,2.2-1,3.3-1.5l2.3-1.1l-1.9-1.8c-7-6.6-11.9-11.6-10.1-16.1c0.9-2.3,3.2-3.5,6.9-3.5c0.2,0,0.3,0,0.5,0l0.1,0
		c2.7,0.1,7.4,2.1,12.6,5.5l1.6,1l0.9-1.7c1-1.9,3.1-2.9,6.3-2.9c0.2,0,0.3,0,0.5,0c2.7,0.1,6.9,1.9,12,5.2c4.2,2.7,8.1,6,9.7,7.6
		c1.9,2,2.7,4.4,2.3,6.7c-1,5.4-7.8,9-14.6,12.1l-0.1,0c-0.4,0.2-0.7,0.3-1,0.5l0,0l0,0c-8.4,4.5-14.5,7.5-18,8.8
		c-0.8,0.3-1.5,0.4-2.2,0.4c-2.4,0-4.2-1.7-4.4-4.3l0-0.1c0-0.1,0-0.1,0-0.1l-0.2-2.7l-2.4,1.2c-5.1,2.6-10.2,5.2-13.8,6.6l-0.1,0
		C-279.9-296.8-280.6-296.7-281.2-296.7z"/>
	<path class="st1" d="M-280.8-298.1c-2.1,0-4.4-1.5-4.4-4.7l0,0c-0.1-3.4,1.6-6.4,5.2-9.3c3.3-2.6,7.6-4.6,11.4-6.4
		c1-0.5,2.2-1,3.3-1.5l2.3-1.1l-1.9-1.8c-7-6.6-11.9-11.6-10.1-16.1c0.9-2.3,3.2-3.5,6.9-3.5c0.2,0,0.3,0,0.5,0l0.1,0
		c2.7,0.1,7.4,2.1,12.6,5.5l1.6,1l0.9-1.7c1-1.9,3.1-2.9,6.3-2.9c0.2,0,0.3,0,0.5,0c2.7,0.1,6.9,1.9,12,5.2c4.2,2.7,8.1,6,9.7,7.6
		c1.9,2,2.7,4.4,2.3,6.7c-1,5.4-7.8,9-14.6,12.1l-0.1,0c-0.4,0.2-0.7,0.3-1,0.5l0,0l0,0c-8.4,4.5-14.5,7.5-18,8.8
		c-0.8,0.3-1.5,0.4-2.2,0.4c-2.4,0-4.2-1.7-4.4-4.3l0-0.1c0-0.1,0-0.1,0-0.1l-0.2-2.7l-2.4,1.2c-5.1,2.6-10.2,5.2-13.8,6.6l-0.1,0
		C-279.4-298.2-280.2-298.1-280.8-298.1z"/>
	<path class="st2" d="M-226.3-325.6c-3.4-3.6-14.9-11.7-19.5-11.8c-12.2-0.3,6,13.7,7.4,15.8c4.1,4.3-21,8.3-20.7,17.9
		c0.1,1.4,0.9,1.8,2.4,1.2c5.1-1.9,14.4-6.9,17.8-8.7C-234.2-313.4-220.1-319.2-226.3-325.6z M-246.8-326.6
		c-3.6-3.8-16-12.5-21-12.7c-13.2-0.3,6.4,14.8,8,17.2c4.5,4.6-22.7,8.8-22.3,19.2c0,1.6,0.9,2,2.5,1.5c5.5-2.2,15.5-7.6,19.2-9.4
		C-255.4-313.4-240.2-319.6-246.8-326.6z"/>
	<path class="st3" d="M-270.6-337.1c0,0.6,0.9,1.9,1.2,2.3c1,1.6,2.5,3.1,3.7,4.4c1.5,1.5,2.9,2.8,4.5,4.3c0.8,0.7,2,1.8,2.7,2.8
		c0.6,0.6,0.9,1.4,0.9,2.2c0,0.1,0,0.1,0,0.2c0.7-0.2,1.2-0.3,1.9-0.5c2.9-0.7,5.7-1.2,8.6-1.7c0-0.9-0.6-1.7-1.1-2.3
		c-3.2-3.4-15.3-12-19.7-12.1C-268.3-337.4-270-337.4-270.6-337.1z"/>
	<path class="st3" d="M-248.1-335.2c0.1,1.4,3.6,5.1,4.5,6c1.4,1.4,2.7,2.6,4.1,4c0.3,0.3,0.8,0.7,1.4,1.1c3.6-0.2,7.1-0.3,10.4-0.3
		c-3-3.1-14-10.9-18-11C-246.3-335.6-247.6-335.5-248.1-335.2z"/>
</g>
</svg>
